# xmcd CD database file
#
# Track frame offsets:
#	150
#	28784
#	57699
#	87773
#	110455
#	145282
#	180794
#
# Disc length: 2920 seconds
#
# Revision: 3
# Processed by: cddbd v1.5.2PL0 Copyright (c) Steve Scherf et al.
# Submitted via: CDex 1.70beta2
#
DISCID=580b6607
DTITLE=Tal Wilkenfeld - Transformation
DYEAR=2007
DGENRE=Jazz
TTITLE0=BC
TTITLE1=Cosmic Joke
TTITLE2=Truth Be Told
TTITLE3=Serendipity
TTITLE4=The River Of Life
TTITLE5=Oatmeal Bandage
TTITLE6=Table For One
EXTD=YEAR: 2007
EXTT0=
EXTT1=
EXTT2=
EXTT3=
EXTT4=
EXTT5=
EXTT6=
PLAYORDER=
